<svg xmlns="http://www.w3.org/2000/svg" viewBox="0 0 15 15"><title>icon</title><g fill="#6d5439"><rect x="11.89" y="9.96" width="2" height="2" rx="1" ry="1"/><rect x="3.43" y="9.96" width="2" height="2" rx="1" ry="1"/><rect x="2.18" y="3.04" width="9.6" height="1" rx=".47" ry=".47" transform="rotate(180 6.985 3.54)"/><rect x="2.18" y="9.54" width="12.82" height="1" rx=".48" ry=".48" transform="rotate(180 8.59 10.04)"/><rect x="-1.07" y="6.29" width="7.5" height="1" rx=".5" ry=".5" transform="rotate(-90 2.685 6.795)"/><rect x="7.53" y="6.29" width="7.5" height="1" rx=".5" ry=".5" transform="rotate(-90 11.28 6.79)"/><rect x="11.71" y="7.26" width="5.57" height="1" rx=".5" ry=".5" transform="rotate(-90 14.5 7.76)"/><rect x="10.93" y="4.97" width="4.07" height="1" rx=".5" ry=".5"/><rect y="4.78" width="6.69" height="1" rx=".5" ry=".5"/><rect x=".84" y="6.67" width="5.84" height="1" rx=".47" ry=".47"/></g></svg>