<svg id="Слой_1" data-name="Слой 1" xmlns="http://www.w3.org/2000/svg" viewBox="0 0 40 40"><defs><style>.cls-1{fill:none;stroke:#201600;stroke-miterlimit:10;stroke-width:2px}</style></defs><title>category</title><path class="cls-1" d="M4.17 21.13h31.66v14.85H4.17zM37.15 8.69a1.63 1.63 0 0 0-.93-.39H3.55a1.35 1.35 0 0 0-.92.39 1.4 1.4 0 0 0-.34 1.18v11.26h35.4V9.82a1.66 1.66 0 0 0-.54-1.13zm-10.78-.74H13.63V6.13a1.67 1.67 0 0 1 1.69-1.33h9.4a1.51 1.51 0 0 1 1.66 1.28v1.87z"/><path class="cls-1" d="M7.2 21.13h6.01v3.37H7.2zm1.54 3.37h2.93v3.93H8.74zm18.04-3.37h6.01v3.37h-6.01zm1.54 3.37h2.93v3.93h-2.93z"/></svg>