<svg id="Слой_1" data-name="Слой 1" xmlns="http://www.w3.org/2000/svg" viewBox="0 0 40 40"><defs><style>.cls-1{fill:none;stroke:#201600;stroke-miterlimit:10;stroke-width:2px}</style></defs><title>category</title><path class="cls-1" d="M23.89 20.72l-4-2.47-3.81 2.47V10.53h7.79v10.2zm13.99-4l-4.6-.91-2.69 3.65L27 9.92l7.29-2.74zm-35.7.1l4.58-1 2.76 3.61 3.42-9.61L5.6 7.21z"/><path class="cls-1" d="M1.75 4.17a30 30 0 0 0 19.42 6.17 29.71 29.71 0 0 0 16.75-6.26M8.83 27.5h22.5V36H8.83z"/><path class="cls-1" d="M9.25 30.5c1.75 1.5 3.16 1.75 4.08 1.67 1.36-.12 1.74-.9 3.33-1s1.79.72 3.58.83c2.47.16 3-1.37 5.17-1 1.49.25 1.84 1.06 3.08.92A4 4 0 0 0 31 30.33m-17.75-6.91l.08 3.67M17.58 23l.17 3.92m4.42-3l-.08 3.33m4.16-3.67l.42 3.92m-23.42 9h33"/></svg>