<svg id="Слой_1" data-name="Слой 1" xmlns="http://www.w3.org/2000/svg" viewBox="0 0 40 40"><defs><style>.cls-1{fill:none;stroke:#201600;stroke-miterlimit:10;stroke-width:2px}</style></defs><title>category</title><circle class="cls-1" cx="32.29" cy="24.01" r="2.64" transform="rotate(-35.31 32.288 24.013)"/><circle class="cls-1" cx="10.96" cy="29.91" r="2.64" transform="rotate(-35.31 10.95 29.904)"/><circle class="cls-1" cx="17.5" cy="8.58" r="2.68" transform="rotate(-35.31 17.495 8.578)"/><circle class="cls-1" cx="19.99" cy="20.95" r="4.71" transform="rotate(-35.31 19.994 20.948)"/><circle class="cls-1" cx="32.29" cy="24.01" r="5.82" transform="rotate(-35.31 32.288 24.013)"/><circle class="cls-1" cx="10.96" cy="29.91" r="5.82" transform="rotate(-35.31 10.95 29.904)"/><circle class="cls-1" cx="17.5" cy="8.58" r="5.82" transform="rotate(-35.31 17.495 8.578)"/><path class="cls-1" d="M30.39 18.21a6.38 6.38 0 0 1-5.67-1.47A6.36 6.36 0 0 1 23 11.25m-9.55 2.25a7.95 7.95 0 0 1-3.56 10.21m18.27 4.59A8 8 0 0 0 16.88 31"/></svg>