<svg id="Слой_1" data-name="Слой 1" xmlns="http://www.w3.org/2000/svg" viewBox="0 0 40 40"><defs><style>.cls-1{fill:none;stroke:#201600;stroke-miterlimit:10;stroke-width:2px}</style></defs><title>category</title><path class="cls-1" d="M19.53 23.7l-2.63-1.09-1.08-2.62 1.08-2.63 2.63-1.09 2.62 1.09 1.09 2.63-1.09 2.62-2.62 1.09zm0-18.58v12.35M15.24 5.93l4.26 3.88 4.31-3.88m-7.18 5.56l2.88 2.66 2.92-2.66m-5.8-8.23l2.88 2.66 2.92-2.66M8.89 9.43l8.74 8.74M6.44 13l5.76-.27.3-5.73m-1.15 9l3.92-.15.18-4m-9.92-1.68L9.45 10l.18-4M4.64 20H17M5.45 24.28L9.33 20l-3.88-4.29M11 22.9l2.67-2.9L11 17.1"/><path class="cls-1" d="M2.79 22.9L5.45 20l-2.66-2.9m6.1 13.46l8.74-8.74M12.5 33l-.27-5.76-5.79-.3m9.01 1.16l-.15-3.92-4-.18m-1.66 9.92L9.48 30l-4-.18m14.05 5.17V22.63m4.29 11.55l-4.27-3.88-4.31 3.88m7.19-5.56L19.55 26l-2.92 2.66m5.8 8.18l-2.88-2.66-2.92 2.66m13.45-6.22l-8.74-8.74M32.54 27l-5.76.27-.3 5.79m1.15-9l-3.92.15-.18 4"/><path class="cls-1" d="M33.44 29.87l-3.92.13-.18 4m5.25-14H22.23m11.55-4.29L29.9 20l3.88 4.31m-5.56-7.21L25.56 20l2.66 2.92"/><path class="cls-1" d="M36.44 17.1L33.78 20l2.66 2.92M30.08 9.43l-8.74 8.74M26.48 7l.27 5.76 5.79.24m-9.02-1.12l.15 3.92 4 .18"/><path class="cls-1" d="M29.34 6.07l.15 3.93 4 .18"/></svg>