<svg id="Слой_1" data-name="Слой 1" xmlns="http://www.w3.org/2000/svg" viewBox="0 0 40 40"><defs><style>.cls-1{fill:none;stroke:#201600;stroke-miterlimit:10;stroke-width:2px}</style></defs><title>category</title><path class="cls-1" d="M19.7 3.8v4.93M7.76 8.64l3.66 3.56m-8.44 8.31h4.98m-.2 11.85l3.66-3.42m8.28 8.4v-4.93m11.84.01l-3.37-3.48m8.44-8.43h-4.98m-.09-11.87l-3.37 3.56"/><circle class="cls-1" cx="19.8" cy="20.57" r="11.84" transform="rotate(-45 19.791 20.572)"/><path class="cls-1" d="M13.29 5.11l1.89 4.56M4.12 14.16l4.74 1.88m-4.62 10.9l4.59-1.9m4.36 11.02l2.07-4.55m10.86 4.59l-1.88-4.56m10.95-4.51l-4.46-1.93m4.57-11.02l-4.59 1.9M26.09 5.06l-1.76 4.57"/></svg>