<svg id="Слой_1" data-name="Слой 1" xmlns="http://www.w3.org/2000/svg" viewBox="0 0 40 40"><defs><style>.cls-1{fill:none;stroke:#201600;stroke-miterlimit:10;stroke-width:2px;}</style></defs><title>category</title><polygon class="cls-1" points="19.53 23.7 16.9 22.61 15.82 19.99 16.9 17.36 19.53 16.27 22.15 17.36 23.24 19.99 22.15 22.61 19.53 23.7"/><line class="cls-1" x1="19.53" y1="5.12" x2="19.53" y2="17.47"/><path class="cls-1" d="M15.24,5.93l4.26,3.88,4.31-3.88"/><path class="cls-1" d="M16.63,11.49l2.88,2.66,2.92-2.66"/><path class="cls-1" d="M16.63,3.26l2.88,2.66,2.92-2.66"/><line class="cls-1" x1="8.89" y1="9.43" x2="17.63" y2="18.17"/><path class="cls-1" d="M6.44,13l5.76-.27L12.5,7"/><path class="cls-1" d="M11.35,16l3.92-.15,0.18-4"/><path class="cls-1" d="M5.53,10.17L9.45,10l0.18-4"/><line class="cls-1" x1="4.64" y1="20" x2="17" y2="20"/><path class="cls-1" d="M5.45,24.28L9.33,20,5.45,15.71"/><path class="cls-1" d="M11,22.9L13.67,20,11,17.1"/><path class="cls-1" d="M2.79,22.9L5.45,20,2.79,17.1"/><line class="cls-1" x1="8.89" y1="30.56" x2="17.63" y2="21.82"/><path class="cls-1" d="M12.5,33l-0.27-5.76-5.79-.3"/><path class="cls-1" d="M15.45,28.1L15.3,24.18l-4-.18"/><path class="cls-1" d="M9.64,33.92L9.48,30l-4-.18"/><line class="cls-1" x1="19.53" y1="34.99" x2="19.53" y2="22.63"/><path class="cls-1" d="M23.82,34.18L19.55,30.3l-4.31,3.88"/><path class="cls-1" d="M22.43,28.62L19.55,26l-2.92,2.66"/><path class="cls-1" d="M22.43,36.84l-2.88-2.66-2.92,2.66"/><line class="cls-1" x1="30.08" y1="30.62" x2="21.34" y2="21.88"/><path class="cls-1" d="M32.54,27l-5.76.27-0.3,5.79"/><path class="cls-1" d="M27.63,24.06l-3.92.15-0.18,4"/><path class="cls-1" d="M33.44,29.87L29.52,30l-0.18,4"/><line class="cls-1" x1="34.59" y1="20" x2="22.23" y2="20"/><path class="cls-1" d="M33.78,15.71L29.9,20l3.88,4.31"/><path class="cls-1" d="M28.22,17.1L25.56,20l2.66,2.92"/><path class="cls-1" d="M36.44,17.1L33.78,20l2.66,2.92"/><line class="cls-1" x1="30.08" y1="9.43" x2="21.34" y2="18.17"/><path class="cls-1" d="M26.48,7l0.27,5.76L32.54,13"/><path class="cls-1" d="M23.52,11.88l0.15,3.92,4,0.18"/><path class="cls-1" d="M29.34,6.07L29.49,10l4,0.18"/></svg>