<svg id="Слой_1" data-name="Слой 1" xmlns="http://www.w3.org/2000/svg" viewBox="0 0 40 40"><defs><style>.cls-1{fill:none;stroke:#201600;stroke-miterlimit:10;stroke-width:2px;}</style></defs><title>category</title><rect class="cls-1" x="4.17" y="21.13" width="31.66" height="14.85"/><path class="cls-1" d="M37.15,8.69a1.63,1.63,0,0,0-.93-0.39H3.55a1.35,1.35,0,0,0-.92.39,1.4,1.4,0,0,0-.34,1.18V21.13h35.4V9.82A1.66,1.66,0,0,0,37.15,8.69Z"/><path class="cls-1" d="M26.37,7.95H13.63V6.13A1.67,1.67,0,0,1,15.32,4.8h9.4a1.51,1.51,0,0,1,1.66,1.28V7.95Z"/><rect class="cls-1" x="7.2" y="21.13" width="6.01" height="3.37"/><rect class="cls-1" x="8.74" y="24.5" width="2.93" height="3.93"/><rect class="cls-1" x="26.78" y="21.13" width="6.01" height="3.37"/><rect class="cls-1" x="28.32" y="24.5" width="2.93" height="3.93"/></svg>