<svg id="Слой_1" data-name="Слой 1" xmlns="http://www.w3.org/2000/svg" viewBox="0 0 40 40"><defs><style>.cls-1{fill:none;stroke:#201600;stroke-miterlimit:10;stroke-width:2px;}</style></defs><title>category</title><circle class="cls-1" cx="7.72" cy="10.96" r="2.32"/><circle class="cls-1" cx="7.72" cy="19.11" r="2.32"/><circle class="cls-1" cx="15.99" cy="10.96" r="2.32"/><circle class="cls-1" cx="15.99" cy="19.11" r="2.32"/><circle class="cls-1" cx="24.26" cy="10.96" r="2.32"/><circle class="cls-1" cx="32.16" cy="10.96" r="2.21"/><circle class="cls-1" cx="24.26" cy="19.11" r="2.32"/><circle class="cls-1" cx="32.53" cy="19.11" r="2.41"/><rect class="cls-1" x="2.24" y="5.02" width="35.52" height="19.79"/><rect class="cls-1" x="2.24" y="31.71" width="23.76" height="2.33" rx="1.17" ry="1.17"/><path class="cls-1" d="M26.58,33a2.43,2.43,0,0,1,1.5-2.17c1.39-.64,2.41.45,6,1.25,2,0.45,3.42.49,3.42,0.67s-1.18.06-2.75,0.33c-3.46.61-4.41,2.28-6.25,1.75A2.55,2.55,0,0,1,26.58,33Z"/></svg>