<svg id="Слой_1" data-name="Слой 1" xmlns="http://www.w3.org/2000/svg" viewBox="0 0 40 40"><defs><style>.cls-1{fill:none;stroke:#201600;stroke-miterlimit:10;stroke-width:2px;}</style></defs><title>category</title><path class="cls-1" d="M23.89,20.72l-4-2.47-3.81,2.47V10.53h7.79v10.2Z"/><path class="cls-1" d="M37.88,16.72l-4.6-.91-2.69,3.65L27,9.92l7.29-2.74Z"/><path class="cls-1" d="M2.18,16.82l4.58-1,2.76,3.61,3.42-9.61L5.6,7.21Z"/><path class="cls-1" d="M1.75,4.17a30,30,0,0,0,19.42,6.17A29.71,29.71,0,0,0,37.92,4.08"/><rect class="cls-1" x="8.83" y="27.5" width="22.5" height="8.5"/><path class="cls-1" d="M9.25,30.5C11,32,12.41,32.25,13.33,32.17c1.36-.12,1.74-0.9,3.33-1s1.79,0.72,3.58.83c2.47,0.16,3-1.37,5.17-1,1.49,0.25,1.84,1.06,3.08.92A4,4,0,0,0,31,30.33"/><path class="cls-1" d="M13.25,23.42l0.08,3.67"/><path class="cls-1" d="M17.58,23l0.17,3.92"/><path class="cls-1" d="M22.17,23.92l-0.08,3.33"/><path class="cls-1" d="M26.25,23.58l0.42,3.92"/><path class="cls-1" d="M3.25,36.5h33"/></svg>