<svg id="Слой_1" data-name="Слой 1" xmlns="http://www.w3.org/2000/svg" viewBox="0 0 40 40"><defs><style>.cls-1{fill:none;stroke:#201600;stroke-miterlimit:10;stroke-width:2px;}</style></defs><title>category</title><line class="cls-1" x1="19.7" y1="3.8" x2="19.7" y2="8.73"/><line class="cls-1" x1="7.76" y1="8.64" x2="11.42" y2="12.2"/><line class="cls-1" x1="2.98" y1="20.51" x2="7.96" y2="20.51"/><line class="cls-1" x1="7.76" y1="32.36" x2="11.42" y2="28.94"/><line class="cls-1" x1="19.7" y1="37.34" x2="19.7" y2="32.41"/><line class="cls-1" x1="31.54" y1="32.42" x2="28.17" y2="28.94"/><line class="cls-1" x1="36.61" y1="20.51" x2="31.63" y2="20.51"/><line class="cls-1" x1="31.54" y1="8.64" x2="28.17" y2="12.2"/><circle class="cls-1" cx="19.8" cy="20.57" r="11.84" transform="translate(-8.75 20.02) rotate(-45)"/><line class="cls-1" x1="13.29" y1="5.11" x2="15.18" y2="9.67"/><line class="cls-1" x1="4.12" y1="14.16" x2="8.86" y2="16.04"/><line class="cls-1" x1="4.24" y1="26.94" x2="8.83" y2="25.04"/><line class="cls-1" x1="13.19" y1="36.06" x2="15.26" y2="31.51"/><line class="cls-1" x1="26.12" y1="36.1" x2="24.24" y2="31.54"/><line class="cls-1" x1="35.19" y1="27.03" x2="30.73" y2="25.1"/><line class="cls-1" x1="35.3" y1="14.08" x2="30.71" y2="15.98"/><line class="cls-1" x1="26.09" y1="5.06" x2="24.33" y2="9.63"/></svg>