<svg id="Слой_1" data-name="Слой 1" xmlns="http://www.w3.org/2000/svg" viewBox="0 0 40 40"><defs><style>.cls-1{fill:none;stroke:#201600;stroke-miterlimit:10;stroke-width:2px;}</style></defs><title>category</title><circle class="cls-1" cx="32.29" cy="24.01" r="2.64" transform="translate(-7.94 23.08) rotate(-35.31)"/><circle class="cls-1" cx="10.96" cy="29.91" r="2.64" transform="translate(-15.27 11.83) rotate(-35.31)"/><circle class="cls-1" cx="17.5" cy="8.58" r="2.68" transform="translate(-1.74 11.69) rotate(-35.31)"/><circle class="cls-1" cx="19.99" cy="20.95" r="4.71" transform="translate(-8.43 15.41) rotate(-35.31)"/><circle class="cls-1" cx="32.29" cy="24.01" r="5.82" transform="translate(-7.94 23.08) rotate(-35.31)"/><circle class="cls-1" cx="10.96" cy="29.91" r="5.82" transform="translate(-15.27 11.83) rotate(-35.31)"/><circle class="cls-1" cx="17.5" cy="8.58" r="5.82" transform="translate(-1.74 11.69) rotate(-35.31)"/><path class="cls-1" d="M30.39,18.21a6.38,6.38,0,0,1-5.67-1.47A6.36,6.36,0,0,1,23,11.25"/><path class="cls-1" d="M13.45,13.5A7.95,7.95,0,0,1,9.89,23.71"/><path class="cls-1" d="M28.16,28.3A8,8,0,0,0,16.88,31"/></svg>