<svg id="Слой_1" data-name="Слой 1" xmlns="http://www.w3.org/2000/svg" viewBox="0 0 40 40"><defs><style>.cls-1{fill:none;stroke:#201600;stroke-miterlimit:10;stroke-width:2px;}</style></defs><title>category</title><circle class="cls-1" cx="20" cy="20" r="16.58"/><path class="cls-1" d="M17.08,22.25l9.67-3-0.33-8.67a19,19,0,0,0-9.83-3.17L11,15.92a23,23,0,0,1,2,1.58A23.31,23.31,0,0,1,17.08,22.25Z"/><path class="cls-1" d="M26.92,10.5l4.92-1.92"/><path class="cls-1" d="M26.67,19.25l6.5,4.67,3-2.83"/><path class="cls-1" d="M17.08,22.33l0.25,8.33,10.08,1.58a17.61,17.61,0,0,0,5.75-8.5"/><path class="cls-1" d="M14.42,4.5l2.17,3.08"/><path class="cls-1" d="M4,17.67l7.08-1.92"/><path class="cls-1" d="M16.92,30.67L8.83,32.08"/><path class="cls-1" d="M27.08,32l0.17,2.92"/></svg>